<?xml version="1.0" encoding="UTF-8"?>
<svg id="Capa_2" data-name="Capa 2" xmlns="http://www.w3.org/2000/svg" viewBox="0 0 180 160">
  <g id="Capa_3" data-name="Capa 3">
    <path fill="#e5c272" d="M180,0h-80v10c8.27,0,15,6.73,15,15v53.24L59.1,8.86h-.02C54.49,3.45,47.64,0,40,0v10c8.27,0,15,6.73,15,15v28.42L19.1,8.86h-.02C14.49,3.45,7.64,0,0,0v10c8.27,0,15,6.73,15,15v110c0,8.27-6.73,15-15,15v10h80v-10h-20.01c3.15-4.18,5.01-9.38,5.01-15v-53.24l55.9,69.38h.02c4.59,5.41,11.44,8.86,19.08,8.86v-10c-8.27,0-15-6.73-15-15v-28.41l35.9,44.56h.02c4.59,5.41,11.44,8.86,19.08,8.86v-10c-8.27,0-15-6.73-15-15V25c0-5.62-1.87-10.82-5.01-15h20.01V0ZM55,135c0,8.27-6.73,15-15,15h-20.01c3.15-4.18,5.01-9.38,5.01-15V32.12l30,37.23v65.65ZM115,127.88l-50-62.05v-33.71l50,62.05v33.7ZM155,25v102.88l-30-37.23V25c0-5.62-1.87-10.82-5.01-15h20.01c8.27,0,15,6.73,15,15Z"/>
  </g>
</svg>