<?xml version="1.0" encoding="UTF-8"?>
<svg id="Capa_2" data-name="Capa 2" xmlns="http://www.w3.org/2000/svg" viewBox="0 0 1300 161.5">
  <g id="Capa_3" data-name="Capa 3">
    <g>
      <path d="M1295,151.5c-10.09,0-19.04-6.06-22.79-15.43l-52.56-131.4s0-.02-.01-.03l-1.86-4.64-9.28,3.71,1.86,4.64c2.75,6.86,2.75,14.42,0,21.29l-42.57,106.43c-3.75,9.37-12.69,15.43-22.79,15.43h-5v10h50v-10h-20.69c3.28-3.26,5.95-7.21,7.76-11.71l42.57-106.43c.12-.31.23-.62.34-.93l42.94,107.36c5.28,13.19,17.86,21.71,32.07,21.71h5v-10h-5Z"/>
      <path d="M392.21,136.07L337.79,0l-9.29,3.71,1.86,4.65c2.74,6.86,2.74,14.42,0,21.28l-42.57,106.43c-3.75,9.37-12.69,15.43-22.79,15.43h-5v10h50v-10h-20.69c3.28-3.26,5.95-7.21,7.76-11.71l42.57-106.43c.12-.31.23-.62.34-.92l42.94,107.35c5.28,13.19,17.86,21.71,32.07,21.71h5v-10h-5c-10.09,0-19.04-6.06-22.79-15.43Z"/>
      <path d="M110,136.5c0,8.27-6.73,15-15,15H24.99c3.15-4.18,5.01-9.38,5.01-15V26.5c0-8.27,6.73-15,15-15h5V1.5H0v10h25.01c-3.15,4.18-5.01,9.38-5.01,15v110c0,8.27-6.73,15-15,15H0v10h95c13.79,0,25-11.21,25-25v-15h-10v15Z"/>
      <path d="M665,11.5c8.27,0,15,6.73,15,15v102.88l-95.9-119.02h-.02c-4.59-5.41-11.44-8.86-19.08-8.86v10c8.27,0,15,6.73,15,15v110c0,8.27-6.73,15-15,15v10h40v-10h-20.01c3.15-4.18,5.01-9.38,5.01-15V33.62l95.9,119.02h.02c4.59,5.41,11.44,8.86,19.08,8.86v-10c-8.27,0-15-6.73-15-15V26.5c0-5.62-1.87-10.82-5.01-15h20.01V1.5h-40v10Z"/>
      <path d="M955,11.5c8.27,0,15,6.73,15,15v102.88l-95.9-119.02h-.02c-4.59-5.41-11.44-8.86-19.08-8.86v10c8.27,0,15,6.73,15,15v110c0,8.27-6.73,15-15,15v10h40v-10h-20.01c3.15-4.18,5.01-9.38,5.01-15V33.62l95.9,119.02h.02c4.59,5.41,11.44,8.86,19.08,8.86v-10c-8.27,0-15-6.73-15-15V26.5c0-5.62-1.87-10.82-5.01-15h20.01V1.5h-40v10Z"/>
    </g>
  </g>
</svg>